#!OML:ASF F:\VICON\USERDATA\INSTALL\rory3\rory3.ASF
:FULLY-SPECIFIED
:DEGREES
240
root 1.88105 17.3751 34.8649 -163.039 -43.4331 -170.347
lowerback -15.3505 2.02871 2.0845
upperback -7.59723 1.55996 2.39633
thorax 0.554541 0.428286 1.56919
lowerneck -14.8486 -1.5749 -0.925482
upperneck 38.8672 -8.21279 6.56159
head 17.0239 -3.65565 1.26388
rclavicle -2.60575e-014 -2.17421e-015
rhumerus -40.8544 -15.8748 -65.78
rradius 16.8392
rwrist 5.43122
rhand 10.4551 6.72058
rfingers 7.12502
rthumb 35.5579 -19.7033
lclavicle -2.60575e-014 -2.17421e-015
lhumerus -44.4032 16.7788 75.0338
lradius 33.2781
lwrist -1.50283
lhand 5.96226 17.4927
lfingers 7.12502
lthumb 31.2874 44.839
rfemur -13.9739 -3.49848 33.5379
rtibia 37.5805
rfoot 30.9948 -32.09
rtoes 35.5209
lfemur -38.9043 5.77469 -27.1586
ltibia 30.9485
lfoot -49.7661 29.5501
ltoes 29.7008
241
root 1.87118 17.3784 34.8637 -162.862 -43.2661 -170.53
lowerback -15.4073 2.07233 2.00496
upperback -7.59474 1.6276 2.33489
thorax 0.585771 0.463285 1.56152
lowerneck -14.7342 -1.52393 -0.294028
upperneck 38.6544 -8.07053 6.10353
head 16.8077 -3.56024 0.977577
rclavicle -3.50898e-014 1.49585e-014
rhumerus -41.0465 -16.3214 -65.0304
rradius 16.3244
rwrist 6.32642
rhand 8.61403 9.06116
rfingers 7.12502
rthumb 33.8106 -17.7644
lclavicle -3.50898e-014 1.49585e-014
lhumerus -44.4401 16.608 74.7736
lradius 33.2775
lwrist -1.57879
lhand 5.7056 17.664
lfingers 7.12502
lthumb 31.0428 45.0574
rfemur -13.8204 -3.32657 33.3385
rtibia 37.296
rfoot 30.913 -32.3185
rtoes 35.4615
lfemur -38.8717 5.82762 -27.3429
ltibia 30.8685
lfoot -49.681 29.6292
ltoes 29.5047
242
root 1.85899 17.3835 34.8549 -162.933 -43.2381 -170.498
lowerback -15.412 2.05879 2.07507
upperback -7.59339 1.5985 2.34299
thorax 0.591936 0.446526 1.52614
lowerneck -14.8312 -1.49036 -0.63607
upperneck 38.7569 -8.03546 6.34182
head 16.9179 -3.56414 1.14877
rclavicle -7.27645e-014 6.63444e-015
rhumerus -41.3118 -16.605 -64.4179
rradius 15.935
rwrist 6.61557
rhand 9.92894 7.57758
rfingers 7.12502
rthumb 35.0589 -18.9647
lclavicle -7.27645e-014 6.63444e-015
lhumerus -44.5441 16.2506 74.6025
lradius 33.3357
lwrist -1.30648
lhand 5.45537 17.8345
lfingers 7.12502
lthumb 30.8042 45.2731
rfemur -13.5356 -3.45446 33.3276
rtibia 36.9984
rfoot 31.4472 -31.7166
rtoes 34.1514
lfemur -38.7081 5.94156 -27.3291
ltibia 30.8005
lfoot -49.5698 29.4764
ltoes 29.6496
243
root 1.84699 17.3927 34.8338 -163.306 -43.3913 -170.424
lowerback -15.2614 1.9717 2.06627
upperback -7.4683 1.50518 2.41145
thorax 0.643662 0.41042 1.58569
lowerneck -14.5955 -1.47938 0.152191
upperneck 38.4105 -7.86156 5.63936
head 16.5762 -3.4669 0.737582
rclavicle 3.10228e-014 1.67725e-015
rhumerus -41.6028 -17.207 -63.5777
rradius 15.6434
rwrist 7.01999
rhand 8.82419 8.94183
rfingers 7.12502
rthumb 34.0103 -17.8396
lclavicle 3.10228e-014 1.67725e-015
lhumerus -44.5873 16.2731 74.2473
lradius 33.242
lwrist -1.8279
lhand 5.58058 17.3313
lfingers 7.12502
lthumb 30.9236 44.7473
rfemur -12.8902 -3.55744 33.4156
rtibia 36.67
rfoot 31.0046 -32.1001
rtoes 34.719
lfemur -38.177 6.04318 -27.1894
ltibia 30.6782
lfoot -49.503 29.1105
ltoes 30.2635
244
root 1.83111 17.4004 34.8528 -163.007 -43.1679 -170.225
lowerback -15.5797 2.19232 2.45155
upperback -7.53621 1.71038 2.36833
thorax 0.749958 0.492627 1.36345
lowerneck -14.8323 -1.52074 -0.149583
upperneck 38.4761 -7.93501 5.87809
head 16.7044 -3.49743 0.878566
rclavicle -2.80508e-014 -6.13251e-014
rhumerus -41.7186 -17.3913 -63.0255
rradius 15.4223
rwrist 7.1483
rhand 12.2227 5.72763
rfingers 7.12502
rthumb 37.2313 -20.2767
lclavicle -2.80508e-014 -6.13251e-014
lhumerus -44.4478 16.6851 73.6609
lradius 32.8059
lwrist -2.87667
lhand 5.88436 16.3638
lfingers 7.12502
lthumb 31.2131 43.7244
rfemur -13.2686 -3.24944 33.4231
rtibia 36.4221
rfoot 31.8048 -31.5
rtoes 33.5553
lfemur -38.518 5.2394 -26.8629
ltibia 30.5203
lfoot -50.5296 29.2196
ltoes 31.3218
245
root 1.82061 17.4087 34.8583 -162.715 -42.9309 -170.374
lowerback -15.7402 2.22797 2.39576
upperback -7.53778 1.75041 2.37887
thorax 0.830323 0.511312 1.41658
lowerneck -14.9053 -1.51841 -0.320071
upperneck 38.4418 -7.82603 5.82512
head 16.6997 -3.47689 0.90571
rclavicle -1.10685e-013 -4.3596e-014
rhumerus -41.7947 -17.1703 -62.6673
rradius 15.5907
rwrist 7.13879
rhand 11.3594 6.98339
rfingers 7.12502
rthumb 36.4145 -19.2302
lclavicle -1.10685e-013 -4.3596e-014
lhumerus -44.4253 16.8415 73.2813
lradius 32.5762
lwrist -3.20449
lhand 5.91257 15.8711
lfingers 7.12502
lthumb 31.24 43.2265
rfemur -13.3386 -2.81293 33.2202
rtibia 36.1781
rfoot 32.0165 -31.443
rtoes 32.9106
lfemur -38.5514 4.82107 -26.863
ltibia 30.3257
lfoot -50.9015 29.4853
ltoes 31.3641
246
root 1.81404 17.4201 34.8524 -162.627 -42.74 -170.401
lowerback -15.8072 2.2448 2.37437
upperback -7.56075 1.76716 2.37282
thorax 0.840653 0.517283 1.42656
lowerneck -14.6852 -1.50237 -0.245449
upperneck 38.2528 -7.7124 5.68111
head 16.5229 -3.44402 0.855165
rclavicle -8.15033e-014 -4.09993e-015
rhumerus -42.3112 -17.5775 -61.9389
rradius 16.0624
rwrist 8.09377
rhand 10.1018 7.49434
rfingers 7.12502
rthumb 35.2229 -19.0094
lclavicle -8.15033e-014 -4.09993e-015
lhumerus -44.5212 16.5828 72.9466
lradius 32.5668
lwrist -2.81401
lhand 5.69373 16.0625
lfingers 7.12502
lthumb 31.0314 43.458
rfemur -13.262 -2.33549 33.1693
rtibia 35.966
rfoot 31.5599 -32.101
rtoes 33.5583
lfemur -38.4682 4.69735 -26.782
ltibia 30.1341
lfoot -50.9147 29.7406
ltoes 30.9387
247
root 1.80588 17.4292 34.8494 -162.723 -42.653 -170.243
lowerback -15.7993 2.28712 2.56667
upperback -7.58388 1.79062 2.3857
thorax 0.817495 0.521583 1.33531
lowerneck -14.5009 -1.45232 -0.130026
upperneck 38.1597 -7.618 5.5986
head 16.4121 -3.40661 0.819464
rclavicle -7.12433e-014 -3.46507e-014
rhumerus -42.6947 -18.272 -60.942
rradius 15.9907
rwrist 9.48748
rhand 11.152 6.88648
rfingers 7.12502
rthumb 36.2181 -19.3761
lclavicle -7.12433e-014 -3.46507e-014
lhumerus -44.5801 16.4461 72.5714
lradius 32.4247
lwrist -2.75229
lhand 5.30659 16.1618
lfingers 7.12502
lthumb 30.6624 43.6271
rfemur -13.0536 -2.11912 33.2426
rtibia 35.6144
rfoot 30.8283 -33.0819
rtoes 35.3151
lfemur -38.3753 4.71159 -26.6134
ltibia 30.004
lfoot -50.9077 29.7488
ltoes 30.8377
248
root 1.79884 17.4365 34.84 -162.905 -42.6584 -170.089
lowerback -15.7513 2.27951 2.73685
upperback -7.56126 1.75992 2.40189
thorax 0.821114 0.503336 1.25058
lowerneck -14.3233 -1.35162 0.0845757
upperneck 38.0439 -7.48192 5.54203
head 16.2886 -3.33334 0.785067
rclavicle -9.67678e-015 -9.75287e-015
rhumerus -42.907 -19.1571 -59.8419
rradius 15.4601
rwrist 11.0413
rhand 12.0122 6.88835
rfingers 7.12502
rthumb 37.0322 -19.1678
lclavicle -9.67678e-015 -9.75287e-015
lhumerus -44.6093 16.372 72.1519
lradius 32.2882
lwrist -2.80801
lhand 5.00288 16.1975
lfingers 7.12502
lthumb 30.3727 43.7167
rfemur -12.7061 -1.97984 33.3614
rtibia 35.2041
rfoot 32.2387 -31.8079
rtoes 32.8654
lfemur -38.2732 4.57374 -26.3778
ltibia 30.0944
lfoot -50.8903 29.8046
ltoes 31.0064
249
root 1.79449 17.4464 34.8149 -163.123 -42.7446 -170.063
lowerback -15.6785 2.14583 2.62537
upperback -7.47357 1.60856 2.50618
thorax 0.869629 0.437994 1.39704
lowerneck -14.2496 -1.25747 0.246337
upperneck 38.0413 -7.29126 5.32006
head 16.2385 -3.26262 0.695918
rclavicle -2.89325e-014 -2.11581e-014
rhumerus -43.0673 -20.207 -58.4015
rradius 14.5404
rwrist 12.9395
rhand 14.8976 6.14731
rfingers 7.12502
rthumb 39.7553 -19.1521
lclavicle -2.89325e-014 -2.11581e-014
lhumerus -44.596 16.8102 71.5187
lradius 31.8811
lwrist -3.16769
lhand 4.91916 15.9589
lfingers 7.12502
lthumb 30.2929 43.4928
rfemur -12.1281 -1.73613 33.48
rtibia 34.711
rfoot 31.8336 -32.2838
rtoes 33.2385
lfemur -38.0075 4.50689 -26.1843
ltibia 30.268
lfoot -50.8086 29.4925
ltoes 31.0485
